<svg width="22" height="22" viewBox="0 0 22 22" fill="none" xmlns="http://www.w3.org/2000/svg">
<path d="M15.226 13.8869C14.8043 13.8869 14.456 13.5477 14.456 13.1261C14.456 12.7044 14.8043 12.3744 15.226 12.3744C15.6477 12.3744 15.996 12.7044 15.996 13.1261C15.996 13.5477 15.6477 13.8869 15.226 13.8869ZM6.79266 13.8869C6.371 13.8869 6.02266 13.5477 6.02266 13.1261C6.02266 12.7044 6.371 12.3744 6.79266 12.3744C7.21433 12.3744 7.5535 12.7044 7.5535 13.1261C7.5535 13.5477 7.21433 13.8869 6.79266 13.8869ZM15.501 9.2944L17.0318 6.6544C17.1143 6.49857 17.0593 6.30607 16.9127 6.22357C16.7568 6.1319 16.5643 6.1869 16.5002 6.34274L14.9327 9.01024C13.7043 8.45107 12.3752 8.15774 11.0002 8.1669C9.59766 8.1669 8.25016 8.4694 7.086 9.00107L5.53683 6.33357C5.45433 6.17774 5.26183 6.12274 5.106 6.2144C4.95016 6.2969 4.90433 6.4894 4.98683 6.64524L6.5085 9.28524C3.896 10.7152 2.09933 13.3644 1.8335 16.4994H20.1668C19.9102 13.3736 18.1227 10.7244 15.501 9.2944Z" fill="#1B2340"/>
</svg>
