<svg width="22" height="22" viewBox="0 0 22 22" fill="none" xmlns="http://www.w3.org/2000/svg">
<g clip-path="url(#clip0_2011_701)">
<path fill-rule="evenodd" clip-rule="evenodd" d="M18.1294 4.0612C19.1266 3.6413 20.1957 4.48457 20.0196 5.5522L17.9398 18.1625C17.7392 19.3784 16.4038 20.0761 15.2883 19.4701C14.3549 18.9631 12.97 18.1828 11.7219 17.3672C11.0986 16.9599 9.1902 15.6541 9.42478 14.7245C9.62534 13.9296 12.8336 10.9432 14.6669 9.16718C15.3871 8.46953 15.0591 8.0665 14.2086 8.70884C12.0988 10.3023 8.71154 12.7249 7.59141 13.4068C6.60312 14.0083 6.08711 14.1109 5.47161 14.0083C4.34766 13.821 3.30562 13.531 2.45488 13.1783C1.30504 12.7017 1.36105 11.1215 2.4541 10.6613L18.1294 4.0612Z" fill="#5B81C4"/>
</g>
<defs>
<clipPath id="clip0_2011_701">
<rect width="22" height="22" fill="white"/>
</clipPath>
</defs>
</svg>
