<svg width="30" height="30" viewBox="0 0 30 30" fill="none" xmlns="http://www.w3.org/2000/svg">
<path d="M8.75 16.25L13.75 27.5C14.7446 27.5 15.6984 27.1049 16.4017 26.4017C17.1049 25.6984 17.5 24.7446 17.5 23.75V18.75H24.575C24.9374 18.7541 25.2963 18.6794 25.627 18.531C25.9576 18.3826 26.252 18.1641 26.4898 17.8906C26.7276 17.6171 26.9031 17.2952 27.0042 16.9472C27.1052 16.5991 27.1294 16.2333 27.075 15.875L25.35 4.625C25.2596 4.02887 24.9568 3.48549 24.4974 3.09499C24.038 2.70449 23.4529 2.49318 22.85 2.5H8.75M8.75 16.25V2.5M8.75 16.25H5C4.33696 16.25 3.70107 15.9866 3.23223 15.5178C2.76339 15.0489 2.5 14.413 2.5 13.75V5C2.5 4.33696 2.76339 3.70107 3.23223 3.23223C3.70107 2.76339 4.33696 2.5 5 2.5H8.75" stroke="#F02F49" stroke-width="2" stroke-linecap="round" stroke-linejoin="round"/>
</svg>
