<svg width="39" height="39" viewBox="0 0 39 39" fill="none" xmlns="http://www.w3.org/2000/svg">
<g clip-path="url(#clip0_2017_1771)">
<path fill-rule="evenodd" clip-rule="evenodd" d="M11.5654 0.669439C10.9108 -0.153833 9.6666 -0.229599 8.91262 0.507892L6.73849 2.63446C5.9845 3.37196 6.06197 4.58895 6.90365 5.22927L16.6002 12.606L18.8291 10.4258L21.0581 12.606L30.7546 5.22927C31.5961 4.58895 31.6735 3.37196 30.9196 2.63446L28.7456 0.507892C27.9917 -0.229599 26.7473 -0.153833 26.0926 0.669439L18.8291 9.80417L11.5654 0.669439Z" fill="#13B0FE"/>
<path d="M37.2273 9.52344H1.77273C0.793677 9.52344 0 10.2998 0 11.2574V16.4592C0 17.4169 0.793677 18.1933 1.77273 18.1933H37.2273C38.2063 18.1933 39 17.4169 39 16.4592V11.2574C39 10.2998 38.2063 9.52344 37.2273 9.52344Z" fill="#5044FA"/>
<path d="M3.54492 18.1934H35.454V35.533C35.454 37.4483 33.8667 39.0008 31.9085 39.0008H7.09038C5.13228 39.0008 3.54492 37.4483 3.54492 35.533V18.1934Z" fill="#2D69FF"/>
<g style="mix-blend-mode:soft-light">
<g style="mix-blend-mode:soft-light">
<path d="M23.046 9.52344H15.9551V39.0007H23.046V9.52344Z" fill="white"/>
</g>
</g>
</g>
<defs>
<clipPath id="clip0_2017_1771">
<rect width="39" height="39" fill="white"/>
</clipPath>
</defs>
</svg>
