<svg width="104" height="69" viewBox="0 0 104 69" fill="none" xmlns="http://www.w3.org/2000/svg">
<path d="M54.2762 24.5759C52.8292 23.2424 52.4946 22.4727 52.4946 22.4727C52.4946 22.4727 52.1599 23.2473 50.7129 24.5759C49.5513 25.6447 48.6211 26.5076 48.6211 27.7284C48.6211 28.7972 49.4873 29.6601 50.5603 29.6601C51.3084 29.6601 52.0122 29.3463 52.3469 28.7825C52.2386 29.5473 52.0516 30.6946 51.5791 31.0231H53.4199C52.9424 30.6946 52.7554 29.5473 52.6521 28.7825C52.9867 29.3463 53.6906 29.6601 54.4387 29.6601C55.5116 29.6601 56.3779 28.7972 56.3779 27.7284C56.368 26.5125 55.4378 25.6447 54.2762 24.5759Z" fill="#FF52BD"/>
<path d="M61.0193 27.2033C60.1629 26.414 59.9611 25.9531 59.9611 25.9531C59.9611 25.9531 59.7642 26.414 58.9029 27.2033C58.2138 27.8358 57.6626 28.3506 57.6626 29.0762C57.6626 29.7086 58.1794 30.2234 58.8143 30.2234C59.2573 30.2234 59.6756 30.0371 59.8725 29.7037C59.8085 30.1548 59.7002 30.8363 59.4148 31.0324H60.5074C60.2269 30.8363 60.1137 30.1548 60.0497 29.7037C60.2515 30.0371 60.6649 30.2234 61.1079 30.2234C61.7428 30.2234 62.2596 29.7086 62.2596 29.0762C62.2596 28.3506 61.7083 27.8358 61.0193 27.2033Z" fill="#FF52BD"/>
<path d="M46.4851 27.2033C45.6287 26.414 45.4269 25.9531 45.4269 25.9531C45.4269 25.9531 45.23 26.414 44.3687 27.2033C43.6797 27.8358 43.1284 28.3506 43.1284 29.0762C43.1284 29.7086 43.6452 30.2234 44.2801 30.2234C44.7231 30.2234 45.1414 30.0371 45.3383 29.7037C45.2743 30.1548 45.166 30.8363 44.8806 31.0324H45.9732C45.6927 30.8363 45.5795 30.1548 45.5155 29.7037C45.7173 30.0371 46.1307 30.2234 46.5737 30.2234C47.2086 30.2234 47.7254 29.7086 47.7254 29.0762C47.7254 28.3506 47.1741 27.8358 46.4851 27.2033Z" fill="#FF52BD"/>
<path d="M60.4039 45.3736C61.6048 45.3736 62.5793 46.3443 62.5793 47.5406C62.5793 48.7369 61.6048 49.7076 60.4039 49.7076H45.8797C44.6787 49.7076 43.7042 48.7369 43.7042 47.5406C43.7042 46.3443 44.6787 45.3736 45.8797 45.3736H60.4039ZM60.4039 45.2363H45.8797C44.6049 45.2363 43.5664 46.2708 43.5664 47.5406C43.5664 48.8104 44.6049 49.8449 45.8797 49.8449H60.4039C61.6786 49.8449 62.7171 48.8104 62.7171 47.5406C62.7171 46.2708 61.6786 45.2363 60.4039 45.2363Z" fill="#FF52BD"/>
<path d="M50.1665 47.6977V48.1439H49.8564V46.8691H50.3585C50.511 46.8691 50.6292 46.9084 50.7079 46.9819C50.7867 47.0554 50.826 47.1584 50.826 47.2859C50.826 47.3643 50.8064 47.4379 50.7719 47.4967C50.7374 47.5604 50.6833 47.6095 50.6144 47.6438C50.5455 47.6781 50.4569 47.6977 50.3585 47.6977H50.1665ZM50.511 47.2859C50.511 47.1731 50.4471 47.1192 50.324 47.1192H50.1665V47.4526H50.324C50.4471 47.4477 50.511 47.3937 50.511 47.2859Z" fill="#FF52BD"/>
<path d="M51.7954 47.9085H52.2089V48.1439H51.4854V46.8691H51.7954V47.9085Z" fill="#FF52BD"/>
<path d="M53.6511 47.9134H53.1687L53.09 48.1487H52.7651L53.2327 46.8789H53.592L54.0596 48.1487H53.7298L53.6511 47.9134ZM53.5723 47.6781L53.4148 47.2074L53.2524 47.6781H53.5723Z" fill="#FF52BD"/>
<path d="M55.7971 46.8691L55.3541 47.7222V48.1488H55.044V47.7222L54.6011 46.8691H54.9554L55.2015 47.3888L55.4476 46.8691H55.7971Z" fill="#FF52BD"/>
<g opacity="0.01">
<path d="M52.4895 65.9838C35.5142 65.9838 21.7036 52.2267 21.7036 35.3171C21.7036 18.4075 35.5142 4.65039 52.4895 4.65039C69.4648 4.65039 83.2754 18.4075 83.2754 35.3171C83.2754 52.2267 69.4648 65.9838 52.4895 65.9838ZM52.4895 21.2119C44.6835 21.2119 38.3295 27.5364 38.3295 35.3171C38.3295 43.0929 44.6786 49.4223 52.4895 49.4223C60.2955 49.4223 66.6495 43.0978 66.6495 35.3171C66.6495 27.5413 60.2955 21.2119 52.4895 21.2119Z" fill="#FF0EB1"/>
<path d="M52.4895 64.4557C36.3608 64.4557 23.2393 51.385 23.2393 35.3187C23.2393 19.2524 36.3608 6.18164 52.4895 6.18164C68.6183 6.18164 81.7398 19.2524 81.7398 35.3187C81.7398 51.385 68.6183 64.4557 52.4895 64.4557ZM52.4895 10.9128C38.9792 10.9128 27.9888 21.8606 27.9888 35.3187C27.9888 48.7768 38.9792 59.7246 52.4895 59.7246C65.9999 59.7246 76.9903 48.7768 76.9903 35.3187C76.9903 21.8606 65.9999 10.9128 52.4895 10.9128Z" fill="#FF0EB1"/>
<path d="M70.9709 30.4693C68.0719 30.4693 65.2517 28.9543 63.726 26.2578C61.4669 22.2768 62.8794 17.2269 66.8759 14.9766L91.5981 1.07238C95.5946 -1.17798 100.664 0.229106 102.923 4.21014C105.182 8.19117 103.77 13.241 99.7733 15.4914L75.051 29.3956C73.7566 30.1212 72.3539 30.4693 70.9709 30.4693Z" fill="#FF0EB1"/>
<path d="M8.32144 69.0005C5.4225 69.0005 2.60231 67.4856 1.07655 64.7891C-1.18256 60.808 0.229996 55.7582 4.2265 53.5078L28.9487 39.6036C32.9452 37.3533 38.0147 38.7604 40.2738 42.7414C42.5329 46.7224 41.1203 51.7723 37.1238 54.0226L12.4016 67.9268C11.1072 68.6524 9.70447 69.0005 8.32144 69.0005Z" fill="#FF0EB1"/>
</g>
<g opacity="0.01">
<path d="M52.4899 65.6648C35.6918 65.6648 22.0239 52.0499 22.0239 35.3168C22.0239 18.5837 35.6918 4.96875 52.4899 4.96875C69.288 4.96875 82.9559 18.5837 82.9559 35.3168C82.9559 52.0499 69.288 65.6648 52.4899 65.6648ZM52.4899 20.8929C44.5067 20.8929 38.0099 27.3645 38.0099 35.3168C38.0099 43.269 44.5067 49.7407 52.4899 49.7407C60.4731 49.7407 66.9698 43.269 66.9698 35.3168C66.9698 27.3645 60.4731 20.8929 52.4899 20.8929Z" fill="#FF0EB1"/>
<path d="M52.4898 64.3612C36.4102 64.3612 23.333 51.3297 23.333 35.3173C23.333 19.3 36.4152 6.27344 52.4898 6.27344C68.5693 6.27344 81.6465 19.305 81.6465 35.3173C81.6515 51.3346 68.5693 64.3612 52.4898 64.3612ZM52.4898 10.8232C38.9302 10.8232 27.9004 21.8103 27.9004 35.3173C27.9004 48.8244 38.9302 59.8115 52.4898 59.8115C66.0493 59.8115 77.0791 48.8244 77.0791 35.3173C77.0791 21.8103 66.0493 10.8232 52.4898 10.8232Z" fill="#FF0EB1"/>
<path d="M70.9709 30.15C68.1803 30.15 65.4733 28.6938 64.0017 26.1003C61.8311 22.2712 63.1896 17.4126 67.0335 15.2505L91.7557 1.34628C95.5996 -0.815828 100.477 0.53733 102.648 4.36638C104.818 8.19543 103.46 13.0541 99.6158 15.2162L74.8936 29.1204C73.6533 29.8166 72.2998 30.15 70.9709 30.15Z" fill="#FF0EB1"/>
<path d="M8.32152 68.6812C5.53085 68.6812 2.82386 67.2251 1.35224 64.6315C-0.818275 60.8025 0.540143 55.9439 4.38407 53.7817L29.1063 39.8775C32.9502 37.7154 37.8277 39.0686 39.9982 42.8976C42.1688 46.7267 40.8103 51.5853 36.9664 53.7474L12.2442 67.6516C11.0039 68.3478 9.6504 68.6812 8.32152 68.6812Z" fill="#FF0EB1"/>
</g>
<g opacity="0.01">
<path d="M52.4898 65.3478C35.8689 65.3478 22.3438 51.875 22.3438 35.3184C22.3438 18.7618 35.8689 5.28906 52.4898 5.28906C69.1107 5.28906 82.6359 18.7618 82.6359 35.3184C82.6359 51.875 69.1107 65.3478 52.4898 65.3478ZM52.4898 20.5758C44.3295 20.5758 37.6899 27.1897 37.6899 35.3184C37.6899 43.4472 44.3295 50.061 52.4898 50.061C60.6502 50.061 67.2897 43.4472 67.2897 35.3184C67.2897 27.1897 60.6502 20.5758 52.4898 20.5758Z" fill="#FF0EB1"/>
<path d="M52.4896 64.2746C36.4642 64.2746 23.4214 51.2872 23.4214 35.3189C23.4214 19.3556 36.4592 6.36328 52.4896 6.36328C68.515 6.36328 81.5577 19.3507 81.5577 35.3189C81.5577 51.2823 68.5199 64.2746 52.4896 64.2746ZM52.4896 10.7316C38.8808 10.7316 27.8067 21.7628 27.8067 35.3189C27.8067 48.875 38.8808 59.9062 52.4896 59.9062C66.0984 59.9062 77.1724 48.875 77.1724 35.3189C77.1724 21.7628 66.0984 10.7316 52.4896 10.7316Z" fill="#FF0EB1"/>
<path d="M70.9707 29.8328C68.2932 29.8328 65.6945 28.4355 64.282 25.9449C62.2001 22.2678 63.4994 17.6053 67.1908 15.5315L91.913 1.62725C95.6043 -0.446609 100.285 0.847717 102.367 4.52478C104.449 8.20184 103.149 12.8644 99.4581 14.9382L74.7359 28.8424C73.5448 29.5141 72.2455 29.8328 70.9707 29.8328Z" fill="#FF0EB1"/>
<path d="M8.3213 68.364C5.64383 68.364 3.04512 66.9668 1.63256 64.4762C-0.449362 60.7991 0.849995 56.1366 4.54135 54.0627L29.2636 40.1585C32.9549 38.0846 37.6356 39.379 39.7175 43.056C41.7994 46.7331 40.5001 51.3956 36.8087 53.4695L12.0865 67.3737C10.8954 68.0454 9.60096 68.364 8.3213 68.364Z" fill="#FF0EB1"/>
</g>
<g opacity="0.01">
<path d="M52.4897 65.0288C36.046 65.0288 22.6636 51.7031 22.6636 35.3181C22.6636 18.938 36.041 5.60742 52.4897 5.60742C68.9335 5.60742 82.3158 18.9331 82.3158 35.3181C82.3158 51.6982 68.9384 65.0288 52.4897 65.0288ZM52.4897 20.2568C44.1522 20.2568 37.3699 27.0128 37.3699 35.3181C37.3699 43.6234 44.1522 50.3793 52.4897 50.3793C60.8272 50.3793 67.6095 43.6234 67.6095 35.3181C67.6095 27.0128 60.8272 20.2568 52.4897 20.2568Z" fill="#FF0EB1"/>
<path d="M52.4898 64.1801C36.5136 64.1801 23.5151 51.2319 23.5151 35.3176C23.5151 19.4032 36.5136 6.45508 52.4898 6.45508C68.466 6.45508 81.4645 19.4032 81.4645 35.3176C81.4645 51.2319 68.466 64.1801 52.4898 64.1801ZM52.4898 10.6371C38.8318 10.6371 27.7184 21.7075 27.7184 35.3127C27.7184 48.9178 38.8318 59.9882 52.4898 59.9882C66.1478 59.9882 77.2612 48.9178 77.2612 35.3127C77.2662 21.7075 66.1527 10.6371 52.4898 10.6371Z" fill="#FF0EB1"/>
<path d="M70.9711 29.5137C68.4069 29.5137 65.9115 28.1752 64.563 25.7876C62.5647 22.2625 63.8148 17.7961 67.3487 15.8056L92.0709 1.90138C95.6097 -0.0891327 100.093 1.15617 102.092 4.68124C104.09 8.20632 102.84 12.6727 99.306 14.6632L74.5788 28.5675C73.437 29.2097 72.1967 29.5137 70.9711 29.5137Z" fill="#FF0EB1"/>
<path d="M8.32156 68.0449C5.7573 68.0449 3.26194 66.7065 1.91337 64.3188C-0.0848823 60.7938 1.16526 56.3274 4.70403 54.3368L29.4263 40.4326C32.965 38.4421 37.4488 39.6874 39.447 43.2125C41.4453 46.7376 40.1952 51.204 36.6564 53.1945L11.9292 67.0987C10.7874 67.741 9.54709 68.0449 8.32156 68.0449Z" fill="#FF0EB1"/>
</g>
<g opacity="0.01">
<path d="M52.4896 64.7117C36.2181 64.7117 22.9834 51.5282 22.9834 35.3197C22.9834 19.1112 36.2181 5.92773 52.4896 5.92773C68.7611 5.92773 81.9958 19.1112 81.9958 35.3197C81.9958 51.5233 68.7611 64.7117 52.4896 64.7117ZM52.4896 19.9398C43.9749 19.9398 37.0499 26.838 37.0499 35.3197C37.0499 43.8015 43.9749 50.6997 52.4896 50.6997C61.0043 50.6997 67.9293 43.8015 67.9293 35.3197C67.9293 26.838 61.0043 19.9398 52.4896 19.9398Z" fill="#FF0EB1"/>
<path d="M52.4896 64.0934C36.5626 64.0934 23.6035 51.1845 23.6035 35.3192C23.6035 19.4539 36.5626 6.54492 52.4896 6.54492C68.4165 6.54492 81.3757 19.4539 81.3757 35.3192C81.3757 51.1845 68.4165 64.0934 52.4896 64.0934ZM52.4896 10.5505C38.7774 10.5505 27.6246 21.6601 27.6246 35.3192C27.6246 48.9782 38.7774 60.0879 52.4896 60.0879C66.2017 60.0879 77.3545 48.9782 77.3545 35.3192C77.3545 21.6601 66.2017 10.5505 52.4896 10.5505Z" fill="#FF0EB1"/>
<path d="M70.9707 29.1955C68.5147 29.1955 66.1326 27.9159 64.8382 25.6312C62.9285 22.263 64.1245 17.9878 67.5058 16.0855L92.228 2.18132C95.6093 0.279047 99.9011 1.47042 101.811 4.83861C103.72 8.2068 102.524 12.482 99.1431 14.3843L74.4209 28.2885C73.3283 28.9013 72.1421 29.1955 70.9707 29.1955Z" fill="#FF0EB1"/>
<path d="M8.32131 67.7267C5.86533 67.7267 3.48318 66.4471 2.18874 64.1624C0.279082 60.7942 1.47508 56.519 4.85636 54.6168L29.5786 40.7126C32.9599 38.8103 37.2517 40.0017 39.1613 43.3699C41.071 46.738 39.875 51.0132 36.4937 52.9155L11.7715 66.8197C10.6789 67.4326 9.4927 67.7267 8.32131 67.7267Z" fill="#FF0EB1"/>
</g>
<g opacity="0.01">
<path d="M52.49 64.3908C36.3957 64.3908 23.3037 51.3495 23.3037 35.3175C23.3037 19.2855 36.3957 6.24414 52.49 6.24414C68.5843 6.24414 81.6763 19.2855 81.6763 35.3175C81.6763 51.3495 68.5843 64.3908 52.49 64.3908ZM52.49 19.6188C43.803 19.6188 36.7304 26.6592 36.7304 35.3175C36.7304 43.9708 43.7981 51.0161 52.49 51.0161C61.177 51.0161 68.2496 43.9757 68.2496 35.3175C68.2496 26.6641 61.1819 19.6188 52.49 19.6188Z" fill="#FF0EB1"/>
<path d="M52.4898 63.9989C36.6121 63.9989 23.6973 51.1341 23.6973 35.3178C23.6973 19.5015 36.6121 6.63672 52.4898 6.63672C68.3676 6.63672 81.2824 19.5015 81.2824 35.3178C81.2824 51.1341 68.3676 63.9989 52.4898 63.9989ZM52.4898 10.456C38.7285 10.456 27.5314 21.6097 27.5314 35.3178C27.5314 49.0259 38.7285 60.1797 52.4898 60.1797C66.2512 60.1797 77.4483 49.0259 77.4483 35.3178C77.4483 21.6097 66.2512 10.456 52.4898 10.456Z" fill="#FF0EB1"/>
<path d="M70.971 28.8754C68.6282 28.8754 66.3543 27.6497 65.119 25.4729C63.2979 22.2567 64.4348 18.1776 67.6635 16.3587L92.3858 2.45447C95.6145 0.640454 99.7094 1.77299 101.535 4.98919C103.356 8.2054 102.22 12.2845 98.9908 14.1034L74.2686 28.0076C73.2203 28.5959 72.0882 28.8754 70.971 28.8754Z" fill="#FF0EB1"/>
<path d="M8.32158 67.4066C5.9788 67.4066 3.70492 66.181 2.46955 64.0041C0.648483 60.7879 1.78542 56.7088 5.01412 54.8899L29.7363 40.9857C32.965 39.1717 37.06 40.3042 38.886 43.5204C40.707 46.7366 39.5701 50.8157 36.3414 52.6347L11.6192 66.5389C10.5708 67.1272 9.43883 67.4066 8.32158 67.4066Z" fill="#FF0EB1"/>
</g>
<g opacity="0.01">
<path d="M52.4894 64.0737C36.5723 64.0737 23.623 51.1746 23.623 35.3191C23.623 19.4636 36.5723 6.56445 52.4894 6.56445C68.4065 6.56445 81.3558 19.4636 81.3558 35.3191C81.3558 51.1746 68.4065 64.0737 52.4894 64.0737ZM52.4894 19.3018C43.6253 19.3018 36.4099 26.4843 36.4099 35.3191C36.4099 44.1539 43.6203 51.3364 52.4894 51.3364C61.3536 51.3364 68.569 44.1539 68.569 35.3191C68.569 26.4843 61.3536 19.3018 52.4894 19.3018Z" fill="#FF0EB1"/>
<path d="M52.4896 63.9064C36.6611 63.9064 23.7856 51.0808 23.7856 35.3135C23.7856 19.5463 36.6611 6.7207 52.4896 6.7207C68.3181 6.7207 81.1936 19.5463 81.1936 35.3135C81.1936 51.0808 68.3181 63.9064 52.4896 63.9064ZM52.4896 10.3684C38.679 10.3684 27.4425 21.5613 27.4425 35.3185C27.4425 49.0756 38.679 60.2686 52.4896 60.2686C66.3002 60.2686 77.5367 49.0756 77.5367 35.3185C77.5367 21.5613 66.3002 10.3684 52.4896 10.3684Z" fill="#FF0EB1"/>
<path d="M70.9708 28.5573C68.7412 28.5573 66.5707 27.3904 65.3944 25.3165C63.657 22.2523 64.7447 18.3693 67.8209 16.6387L92.5431 2.73446C95.6192 1.00379 99.5173 2.0873 101.255 5.15152C102.992 8.21574 101.904 12.0987 98.8282 13.8294L74.106 27.7336C73.1118 28.2925 72.0339 28.5573 70.9708 28.5573Z" fill="#FF0EB1"/>
<path d="M8.32139 67.0885C6.09182 67.0885 3.9213 65.9216 2.74499 63.8478C1.00759 60.7836 2.09531 56.9006 5.17144 55.1699L29.8937 41.2657C32.9698 39.535 36.8679 40.6185 38.6053 43.6828C40.3427 46.747 39.2549 50.63 36.1788 52.3606L11.4566 66.2648C10.4624 66.8238 9.3845 67.0885 8.32139 67.0885Z" fill="#FF0EB1"/>
</g>
<g opacity="0.01">
<path d="M52.4898 63.7547C36.7499 63.7547 23.9434 50.9978 23.9434 35.3188C23.9434 19.6398 36.7499 6.88281 52.4898 6.88281C68.2298 6.88281 81.0363 19.6398 81.0363 35.3188C81.0363 50.9978 68.2298 63.7547 52.4898 63.7547ZM52.4898 18.9828C43.4485 18.9828 36.0953 26.3124 36.0953 35.3139C36.0953 44.3153 43.4534 51.6449 52.4898 51.6449C61.5312 51.6449 68.8844 44.3153 68.8844 35.3139C68.8844 26.3124 61.5312 18.9828 52.4898 18.9828Z" fill="#FF0EB1"/>
<path d="M52.4898 63.8177C36.7155 63.8177 23.8794 51.0314 23.8794 35.3181C23.8794 19.6047 36.7155 6.81836 52.4898 6.81836C68.2642 6.81836 81.1003 19.6047 81.1003 35.3181C81.1003 51.0314 68.2642 63.8177 52.4898 63.8177ZM52.4898 10.2748C38.63 10.2748 27.3493 21.507 27.3493 35.3181C27.3493 49.1291 38.6251 60.3613 52.4898 60.3613C66.3496 60.3613 77.6304 49.1291 77.6304 35.3181C77.6304 21.507 66.3546 10.2748 52.4898 10.2748Z" fill="#FF0EB1"/>
<path d="M70.9711 28.2391C68.8498 28.2391 66.7925 27.1311 65.6752 25.1602C64.0264 22.248 65.0551 18.5611 67.9786 16.9138L92.7008 3.00957C95.6244 1.36715 99.3256 2.39183 100.979 5.30406C102.628 8.21629 101.599 11.9032 98.6759 13.5505L73.9537 27.4547C73.0038 27.9891 71.98 28.2391 70.9711 28.2391Z" fill="#FF0EB1"/>
<path d="M8.32166 66.7704C6.20036 66.7704 4.14305 65.6624 3.0258 63.6915C1.37699 60.7792 2.40565 57.0923 5.3292 55.445L30.0514 41.5408C32.975 39.8984 36.6762 40.9231 38.3299 43.8353C39.9787 46.7475 38.9501 50.4344 36.0265 52.0817L11.3043 65.9859C10.3593 66.5203 9.33063 66.7704 8.32166 66.7704Z" fill="#FF0EB1"/>
</g>
<g opacity="0.010232">
<path d="M52.4897 63.4338C36.927 63.4338 24.2632 50.819 24.2632 35.3165C24.2632 19.814 36.927 7.19922 52.4897 7.19922C68.0525 7.19922 80.7163 19.814 80.7163 35.3165C80.7163 50.819 68.0525 63.4338 52.4897 63.4338ZM52.4897 18.6619C43.2712 18.6619 35.7753 26.1336 35.7753 35.3116C35.7753 44.4944 43.2761 51.9613 52.4897 51.9613C61.7083 51.9613 69.2042 44.4895 69.2042 35.3116C69.2091 26.1336 61.7083 18.6619 52.4897 18.6619Z" fill="#FF0EB1"/>
<path d="M52.4896 63.7232C36.7644 63.7232 23.9727 50.981 23.9727 35.3167C23.9727 19.6524 36.7644 6.91016 52.4896 6.91016C68.2148 6.91016 81.0065 19.6524 81.0065 35.3167C81.0065 50.981 68.2148 63.7232 52.4896 63.7232ZM52.4896 10.1852C38.5756 10.1852 27.2604 21.4615 27.2604 35.3167C27.2604 49.1719 38.5806 60.4482 52.4896 60.4482C66.4035 60.4482 77.7188 49.1719 77.7188 35.3167C77.7188 21.4615 66.4035 10.1852 52.4896 10.1852Z" fill="#FF0EB1"/>
<path d="M70.9659 27.919C68.9578 27.919 67.0088 26.8698 65.9506 25.0018C64.3904 22.2465 65.3649 18.7459 68.1309 17.1918L92.8532 3.28755C95.6192 1.73338 99.1334 2.70412 100.694 5.45947C102.254 8.21481 101.279 11.7154 98.5132 13.2696L73.791 27.1738C72.9002 27.6787 71.9257 27.919 70.9659 27.919Z" fill="#FF0EB1"/>
<path d="M8.32137 66.4502C6.31328 66.4502 4.36424 65.401 3.30605 63.5331C1.74584 60.7777 2.72036 57.2772 5.48641 55.723L30.2086 41.8188C32.9747 40.2646 36.4889 41.2354 38.0491 43.9907C39.6093 46.7461 38.6348 50.2466 35.8687 51.8008L11.1416 65.7099C10.2507 66.21 9.2762 66.4502 8.32137 66.4502Z" fill="#FF0EB1"/>
</g>
<g opacity="0.012645">
<path d="M52.4896 63.1167C37.1041 63.1167 24.583 50.6441 24.583 35.3181C24.583 19.9921 37.1041 7.51953 52.4896 7.51953C67.8752 7.51953 80.3963 19.9921 80.3963 35.3181C80.3963 50.6441 67.8801 63.1167 52.4896 63.1167ZM52.4896 18.3448C43.0939 18.3448 35.4553 25.9588 35.4553 35.3132C35.4553 44.6677 43.0988 52.2817 52.4896 52.2817C61.8854 52.2817 69.524 44.6677 69.524 35.3132C69.524 25.9588 61.8854 18.3448 52.4896 18.3448Z" fill="#FF0EB1"/>
<path d="M52.4894 63.6366C36.8134 63.6366 24.061 50.9336 24.061 35.3183C24.061 19.703 36.8134 7 52.4894 7C68.1653 7 80.9177 19.703 80.9177 35.3183C80.9177 50.9336 68.1653 63.6366 52.4894 63.6366ZM52.4894 10.0936C38.5262 10.0936 27.1667 21.4092 27.1667 35.3183C27.1667 49.2274 38.5262 60.5429 52.4894 60.5429C66.4525 60.5429 77.8121 49.2274 77.8121 35.3183C77.8121 21.4092 66.4525 10.0936 52.4894 10.0936Z" fill="#FF0EB1"/>
<path d="M70.9657 27.6018C69.0708 27.6018 67.2251 26.6115 66.226 24.8465C64.7495 22.2431 65.6748 18.9387 68.2883 17.4678L93.0105 3.56363C95.624 2.09281 98.9413 3.01452 100.418 5.61789C101.894 8.22125 100.969 11.5257 98.3556 12.9965L73.6333 26.9007C72.7917 27.3763 71.8713 27.6018 70.9657 27.6018Z" fill="#FF0EB1"/>
<path d="M8.31631 66.1321C6.42141 66.1321 4.57573 65.1417 3.57661 63.3767C2.10007 60.7734 3.02537 57.4689 5.63884 55.9981L30.366 42.0988C32.9795 40.628 36.2968 41.5497 37.7733 44.153C39.2498 46.7564 38.3245 50.0609 35.7111 51.5317L10.9888 65.4359C10.1423 65.9066 9.22192 66.1321 8.31631 66.1321Z" fill="#FF0EB1"/>
</g>
<g opacity="0.015365">
<path d="M52.4895 62.7977C37.2762 62.7977 24.9028 50.4722 24.9028 35.3178C24.9028 20.1634 37.2762 7.83789 52.4895 7.83789C67.7028 7.83789 80.0763 20.1634 80.0763 35.3178C80.0763 50.4722 67.7028 62.7977 52.4895 62.7977ZM52.4895 18.0307C42.9216 18.0307 35.1353 25.7869 35.1353 35.3178C35.1353 44.8488 42.9216 52.6049 52.4895 52.6049C62.0575 52.6049 69.8438 44.8488 69.8438 35.3178C69.8487 25.782 62.0625 18.0307 52.4895 18.0307Z" fill="#FF0EB1"/>
<path d="M52.4896 63.544C36.8629 63.544 24.1548 50.8802 24.1548 35.3189C24.1548 19.7527 36.8678 7.09375 52.4896 7.09375C68.1163 7.09375 80.8244 19.7576 80.8244 35.3189C80.8294 50.8802 68.1163 63.544 52.4896 63.544ZM52.4896 10.006C38.4772 10.006 27.0783 21.3608 27.0783 35.3189C27.0783 49.277 38.4772 60.6318 52.4896 60.6318C66.502 60.6318 77.9009 49.277 77.9009 35.3189C77.9009 21.3608 66.502 10.006 52.4896 10.006Z" fill="#FF0EB1"/>
<path d="M70.9665 27.2827C69.1799 27.2827 67.4474 26.3512 66.5073 24.6891C65.1194 22.2378 65.9856 19.1294 68.4465 17.7469L93.1687 3.84265C95.6296 2.46007 98.7501 3.32296 100.138 5.77433C101.526 8.22571 100.66 11.3341 98.1988 12.7166L73.4766 26.6208C72.6842 27.0719 71.8179 27.2827 70.9665 27.2827Z" fill="#FF0EB1"/>
<path d="M8.31657 65.814C6.52996 65.814 4.79748 64.8824 3.85742 63.2204C2.46947 60.769 3.33571 57.6607 5.79661 56.2781L30.5188 42.3739C32.9797 40.9913 36.1002 41.8542 37.4881 44.3056C38.8761 46.757 38.0098 49.8653 35.5489 51.2479L10.8267 65.1521C10.0343 65.6031 9.17297 65.814 8.31657 65.814Z" fill="#FF0EB1"/>
</g>
<g opacity="0.018421">
<path d="M52.4899 62.4787C37.4538 62.4787 25.2231 50.2954 25.2231 35.3175C25.2231 20.3396 37.4538 8.15625 52.4899 8.15625C67.5261 8.15625 79.7567 20.3396 79.7567 35.3175C79.7567 50.2954 67.5261 62.4787 52.4899 62.4787ZM52.4899 17.7117C42.7448 17.7117 34.8157 25.61 34.8157 35.3175C34.8157 45.0249 42.7448 52.9233 52.4899 52.9233C62.2351 52.9233 70.1641 45.0249 70.1641 35.3175C70.1691 25.61 62.2351 17.7117 52.4899 17.7117Z" fill="#FF0EB1"/>
<path d="M52.4899 63.4554C36.9173 63.4554 24.2437 50.8357 24.2437 35.3185C24.2437 19.8062 36.9124 7.18164 52.4899 7.18164C68.0625 7.18164 80.7361 19.8013 80.7361 35.3185C80.7361 50.8308 68.0674 63.4554 52.4899 63.4554ZM52.4899 9.91247C38.4283 9.91247 26.9851 21.3114 26.9851 35.3185C26.9851 49.3257 38.4283 60.7246 52.4899 60.7246C66.5515 60.7246 77.9947 49.3257 77.9947 35.3185C77.9947 21.3114 66.5564 9.91247 52.4899 9.91247Z" fill="#FF0EB1"/>
<path d="M70.9659 26.9638C69.2925 26.9638 67.6683 26.0911 66.7873 24.532C65.483 22.2326 66.3001 19.3204 68.6035 18.0211L93.3257 4.11694C95.634 2.81772 98.5576 3.63157 99.8619 5.92606C101.166 8.22545 100.349 11.1377 98.0457 12.4369L73.3235 26.3411C72.5754 26.7628 71.7682 26.9638 70.9659 26.9638Z" fill="#FF0EB1"/>
<path d="M8.31652 65.494C6.6431 65.494 5.01891 64.6213 4.1379 63.0623C2.83363 60.7629 3.65065 57.8506 5.95405 56.5514L30.6812 42.6521C32.9895 41.3529 35.9131 42.1667 37.2174 44.4612C38.5216 46.7606 37.7046 49.6728 35.4012 50.9721L10.679 64.8763C9.92594 65.293 9.11877 65.494 8.31652 65.494Z" fill="#FF0EB1"/>
</g>
<g opacity="0.021843">
<path d="M52.4898 62.1617C37.6309 62.1617 25.543 50.1205 25.543 35.3191C25.543 20.5177 37.6309 8.47656 52.4898 8.47656C67.3488 8.47656 79.4367 20.5177 79.4367 35.3191C79.4367 50.1205 67.3488 62.1617 52.4898 62.1617ZM52.4898 17.3947C42.5675 17.3947 34.4957 25.4352 34.4957 35.3191C34.4957 45.2031 42.5675 53.2436 52.4898 53.2436C62.4122 53.2436 70.484 45.2031 70.484 35.3191C70.484 25.4352 62.4122 17.3947 52.4898 17.3947Z" fill="#FF0EB1"/>
<path d="M52.4896 63.3629C36.9663 63.3629 24.3369 50.7824 24.3369 35.3191C24.3369 19.8559 36.9663 7.27539 52.4896 7.27539C68.013 7.27539 80.6424 19.8559 80.6424 35.3191C80.6424 50.7824 68.013 63.3629 52.4896 63.3629ZM52.4896 9.81992C38.3739 9.81992 26.8913 21.258 26.8913 35.3191C26.8913 49.3802 38.3739 60.8184 52.4896 60.8184C66.6054 60.8184 78.0879 49.3802 78.0879 35.3191C78.0879 21.258 66.6054 9.81992 52.4896 9.81992Z" fill="#FF0EB1"/>
<path d="M70.9661 26.6454C69.4059 26.6454 67.885 25.8316 67.0631 24.3755C65.8474 22.233 66.6054 19.5119 68.7611 18.301L93.4833 4.40165C95.6342 3.19068 98.3658 3.9457 99.5814 6.0931C100.797 8.23561 100.039 10.9566 97.8834 12.1676L73.1612 26.0669C72.4672 26.4591 71.7142 26.6454 70.9661 26.6454Z" fill="#FF0EB1"/>
<path d="M8.31666 65.1767C6.75644 65.1767 5.23561 64.3628 4.41366 62.9067C3.19798 60.7642 3.95594 58.0432 6.11169 56.8322L30.8388 42.9329C32.9897 41.7219 35.7213 42.4769 36.9369 44.6244C38.1526 46.7669 37.3947 49.4879 35.2389 50.6989L10.5167 64.6031C9.81781 64.9904 9.06477 65.1767 8.31666 65.1767Z" fill="#FF0EB1"/>
</g>
<g opacity="0.025674">
<path d="M52.4898 61.8427C37.808 61.8427 25.8628 49.9437 25.8628 35.3188C25.8628 20.6939 37.808 8.79492 52.4898 8.79492C67.1715 8.79492 79.1167 20.6939 79.1167 35.3188C79.1167 49.9437 67.1715 61.8427 52.4898 61.8427ZM52.4898 17.0757C42.3902 17.0757 34.1757 25.2584 34.1757 35.3188C34.1757 45.3793 42.3902 53.562 52.4898 53.562C62.5893 53.562 70.8038 45.3793 70.8038 35.3188C70.8038 25.2584 62.5893 17.0757 52.4898 17.0757Z" fill="#FF0EB1"/>
<path d="M52.4894 63.2684C37.0153 63.2684 24.4253 50.7272 24.4253 35.3129C24.4253 19.8987 37.0153 7.35742 52.4894 7.35742C67.9636 7.35742 80.5536 19.8987 80.5536 35.3129C80.5536 50.7321 67.9636 63.2684 52.4894 63.2684ZM52.4894 9.73035C38.3245 9.73035 26.8025 21.2077 26.8025 35.3178C26.8025 49.4279 38.3245 60.9053 52.4894 60.9053C66.6544 60.9053 78.1763 49.4279 78.1763 35.3178C78.1763 21.2077 66.6544 9.73035 52.4894 9.73035Z" fill="#FF0EB1"/>
<path d="M70.9658 26.3263C69.5138 26.3263 68.1062 25.5664 67.3433 24.223C66.2162 22.2325 66.9201 19.7076 68.9183 18.5799L93.6405 4.67573C95.6388 3.553 98.1735 4.25409 99.3055 6.24461C100.433 8.23512 99.7288 10.76 97.7306 11.8877L73.0083 25.7919C72.3586 26.1547 71.6598 26.3263 70.9658 26.3263Z" fill="#FF0EB1"/>
<path d="M8.31637 64.8575C6.86443 64.8575 5.4568 64.0976 4.69392 62.7543C3.56683 60.7637 4.27064 58.2388 6.2689 57.1112L30.9911 43.207C32.9894 42.0842 35.5241 42.7853 36.6561 44.7759C37.7832 46.7664 37.0794 49.2913 35.0811 50.4189L10.3589 64.3231C9.70924 64.6859 9.01034 64.8575 8.31637 64.8575Z" fill="#FF0EB1"/>
</g>
<g opacity="0.02997">
<path d="M52.4897 61.5237C37.9851 61.5237 26.1826 49.7669 26.1826 35.3185C26.1826 20.8701 37.9851 9.11328 52.4897 9.11328C66.9942 9.11328 78.7967 20.8701 78.7967 35.3185C78.7967 49.7669 66.9991 61.5237 52.4897 61.5237ZM52.4897 16.7567C42.2129 16.7567 33.8557 25.0815 33.8557 35.3185C33.8557 45.5554 42.2129 53.8803 52.4897 53.8803C62.7664 53.8803 71.1236 45.5554 71.1236 35.3185C71.1236 25.0815 62.7664 16.7567 52.4897 16.7567Z" fill="#FF0EB1"/>
<path d="M52.4897 63.1817C37.0647 63.1817 24.519 50.6846 24.519 35.3194C24.519 19.9541 37.0647 7.45703 52.4897 7.45703C67.9146 7.45703 80.4603 19.9541 80.4603 35.3194C80.4603 50.6846 67.9146 63.1817 52.4897 63.1817ZM52.4897 9.63876C38.2755 9.63876 26.7092 21.1602 26.7092 35.3194C26.7092 49.4785 38.2755 61 52.4897 61C66.7038 61 78.2701 49.4785 78.2701 35.3194C78.2701 21.1602 66.7038 9.63876 52.4897 9.63876Z" fill="#FF0EB1"/>
<path d="M70.9661 26.0081C69.6274 26.0081 68.328 25.307 67.6193 24.0666C66.5758 22.2281 67.2304 19.8993 69.0761 18.8599L93.7983 4.95572C95.644 3.91633 97.9819 4.5684 99.0253 6.40693C100.069 8.24546 99.4141 10.5743 97.5684 11.6137L72.8462 25.5179C72.2556 25.8512 71.6059 26.0081 70.9661 26.0081Z" fill="#FF0EB1"/>
<path d="M8.31667 64.5394C6.97794 64.5394 5.67859 63.8383 4.96985 62.5979C3.92642 60.7594 4.58102 58.4306 6.4267 57.3912L31.1489 43.487C32.9946 42.4476 35.3325 43.0996 36.3759 44.9382C37.4193 46.7767 36.7647 49.1055 34.919 50.1449L10.1968 64.0491C9.60618 64.3825 8.95651 64.5394 8.31667 64.5394Z" fill="#FF0EB1"/>
</g>
<g opacity="0.034803">
<path d="M52.4896 61.2047C38.1573 61.2047 26.5024 49.5901 26.5024 35.3182C26.5024 21.0463 38.1622 9.43164 52.4896 9.43164C66.8219 9.43164 78.4767 21.0463 78.4767 35.3182C78.4767 49.5901 66.8219 61.2047 52.4896 61.2047ZM52.4896 16.4377C42.0357 16.4377 33.5357 24.9096 33.5357 35.3182C33.5357 45.7316 42.0406 54.1987 52.4896 54.1987C62.9435 54.1987 71.4434 45.7267 71.4434 35.3182C71.4434 24.9047 62.9435 16.4377 52.4896 16.4377Z" fill="#FF0EB1"/>
<path d="M52.4894 63.0891C37.1186 63.0891 24.6123 50.6313 24.6123 35.32C24.6123 20.0087 37.1186 7.55078 52.4894 7.55078C67.8602 7.55078 80.3714 20.0087 80.3714 35.32C80.3714 50.6313 67.8651 63.0891 52.4894 63.0891ZM52.4894 9.5511C38.226 9.5511 26.6204 21.1118 26.6204 35.32C26.6204 49.5281 38.226 61.0888 52.4894 61.0888C66.7528 61.0888 78.3584 49.5281 78.3584 35.32C78.3584 21.1118 66.7577 9.5511 52.4894 9.5511Z" fill="#FF0EB1"/>
<path d="M70.9659 25.69C69.7403 25.69 68.5443 25.0477 67.8996 23.9103C66.9447 22.2238 67.5403 20.0862 69.2334 19.135L93.9556 5.23083C95.6487 4.27969 97.7897 4.87292 98.7495 6.55947C99.7043 8.24602 99.1087 10.3836 97.4156 11.3348L72.6934 25.239C72.1471 25.5429 71.5516 25.69 70.9659 25.69Z" fill="#FF0EB1"/>
<path d="M8.31645 64.2213C7.09092 64.2213 5.89492 63.579 5.25017 62.4416C4.29534 60.755 4.89087 58.6174 6.58398 57.6663L31.3062 43.7621C32.9993 42.8109 35.1403 43.4042 36.1 45.0907C37.0549 46.7773 36.4593 48.9149 34.7662 49.866L10.044 63.7702C9.49768 64.0742 8.90215 64.2213 8.31645 64.2213Z" fill="#FF0EB1"/>
</g>
<g opacity="0.040278">
<path d="M52.49 60.8857C38.3349 60.8857 26.8228 49.4133 26.8228 35.3179C26.8228 21.2175 38.3398 9.75 52.49 9.75C66.6451 9.75 78.1572 21.2224 78.1572 35.3179C78.1621 49.4182 66.6451 60.8857 52.49 60.8857ZM52.49 16.1187C41.8638 16.1187 33.2162 24.7328 33.2162 35.3179C33.2162 45.9029 41.8638 54.517 52.49 54.517C63.1161 54.517 71.7637 45.9029 71.7637 35.3179C71.7637 24.7328 63.1211 16.1187 52.49 16.1187Z" fill="#FF0EB1"/>
<path d="M52.4897 62.9986C37.1681 62.9986 24.7012 50.5799 24.7012 35.3177C24.7012 20.0554 37.1681 7.63672 52.4897 7.63672C67.8113 7.63672 80.2782 20.0554 80.2782 35.3177C80.2782 50.5799 67.8113 62.9986 52.4897 62.9986ZM52.4897 9.45564C38.1771 9.45564 26.5272 21.0555 26.5272 35.3177C26.5272 49.5749 38.1722 61.1797 52.4897 61.1797C66.8072 61.1797 78.4522 49.5798 78.4522 35.3177C78.4522 21.0555 66.8072 9.45564 52.4897 9.45564Z" fill="#FF0EB1"/>
<path d="M70.9661 25.3698C69.8488 25.3698 68.766 24.7864 68.1803 23.7519C67.3141 22.2223 67.8555 20.2759 69.3911 19.413L94.1133 5.5088C95.6489 4.64592 97.6029 5.18522 98.4691 6.71488C99.3353 8.24454 98.7939 10.1909 97.2583 11.0538L72.5361 24.958C72.039 25.2375 71.4976 25.3698 70.9661 25.3698Z" fill="#FF0EB1"/>
<path d="M8.31665 63.9011C7.1994 63.9011 6.1166 63.3177 5.53091 62.2832C4.66467 60.7535 5.20607 58.8071 6.74167 57.9443L31.4639 44.0401C32.9995 43.1772 34.9535 43.7165 35.8197 45.2461C36.6859 46.7758 36.1445 48.7222 34.6089 49.5851L9.88671 63.4893C9.3896 63.7687 8.84821 63.9011 8.31665 63.9011Z" fill="#FF0EB1"/>
</g>
<g opacity="0.046544">
<path d="M52.4899 60.5667C38.5119 60.5667 27.1426 49.2413 27.1426 35.3175C27.1426 21.3937 38.5119 10.0684 52.4899 10.0684C66.4678 10.0684 77.8372 21.3937 77.8372 35.3175C77.8372 49.2413 66.4678 60.5667 52.4899 60.5667ZM52.4899 15.7997C41.6865 15.7997 32.8962 24.556 32.8962 35.3175C32.8962 46.0791 41.6865 54.8354 52.4899 54.8354C63.2932 54.8354 72.0836 46.0791 72.0836 35.3175C72.0836 24.556 63.2932 15.7997 52.4899 15.7997Z" fill="#FF0EB1"/>
<path d="M52.4894 62.9041C37.2171 62.9041 24.7944 50.5295 24.7944 35.3163C24.7944 20.1031 37.2171 7.72852 52.4894 7.72852C67.7618 7.72852 80.1844 20.1031 80.1844 35.3163C80.1844 50.5295 67.7618 62.9041 52.4894 62.9041ZM52.4894 9.36603C38.1227 9.36603 26.4383 21.0101 26.4383 35.3163C26.4383 49.6225 38.1276 61.2666 52.4894 61.2666C66.8562 61.2666 78.5405 49.6225 78.5405 35.3163C78.5405 21.0101 66.8562 9.36603 52.4894 9.36603Z" fill="#FF0EB1"/>
<path d="M70.9659 25.0507C69.9618 25.0507 68.9873 24.5262 68.4558 23.5946C67.6732 22.217 68.1654 20.4667 69.5484 19.6871L94.2706 5.78293C95.6537 5.0034 97.4107 5.49367 98.1933 6.87134C98.9759 8.24902 98.4837 9.9993 97.1007 10.7788L72.3784 24.683C71.9306 24.9331 71.4433 25.0507 70.9659 25.0507Z" fill="#FF0EB1"/>
<path d="M8.31647 63.582C7.31242 63.582 6.3379 63.0574 5.80635 62.1259C5.02378 60.7482 5.51596 58.9979 6.89899 58.2184L31.6212 44.3142C33.0042 43.5346 34.7613 44.0249 35.5439 45.4026C36.3265 46.7803 35.8343 48.5305 34.4512 49.3101L9.72902 63.2143C9.28114 63.4643 8.79388 63.582 8.31647 63.582Z" fill="#FF0EB1"/>
</g>
<g opacity="0.053841">
<path d="M52.4898 60.2497C38.689 60.2497 27.4624 49.0665 27.4624 35.3192C27.4624 21.5718 38.689 10.3887 52.4898 10.3887C66.2905 10.3887 77.5172 21.5718 77.5172 35.3192C77.5221 49.0665 66.2905 60.2497 52.4898 60.2497ZM52.4898 15.4826C41.5092 15.4826 32.5762 24.3811 32.5762 35.3192C32.5762 46.2572 41.5092 55.1557 52.4898 55.1557C63.4703 55.1557 72.4034 46.2572 72.4034 35.3192C72.4034 24.3811 63.4703 15.4826 52.4898 15.4826Z" fill="#FF0EB1"/>
<path d="M52.4897 62.8174C37.2666 62.8174 24.8833 50.4821 24.8833 35.3179C24.8833 20.1537 37.2666 7.81836 52.4897 7.81836C67.7128 7.81836 80.0961 20.1537 80.0961 35.3179C80.0961 50.4821 67.7128 62.8174 52.4897 62.8174ZM52.4897 9.27448C38.0737 9.27448 26.3451 20.9577 26.3451 35.3179C26.3451 49.6781 38.0737 61.3613 52.4897 61.3613C66.9057 61.3613 78.6343 49.6781 78.6343 35.3179C78.6343 20.9577 66.9057 9.27448 52.4897 9.27448Z" fill="#FF0EB1"/>
<path d="M70.9661 24.7336C70.0753 24.7336 69.2091 24.2678 68.7366 23.4393C68.0426 22.2136 68.4757 20.6594 69.7062 19.9681L94.4284 6.0639C95.6588 5.37261 97.2191 5.80406 97.913 7.02974C98.607 8.25543 98.1739 9.8096 96.9434 10.5009L72.2212 24.4051C71.8225 24.6306 71.3894 24.7336 70.9661 24.7336Z" fill="#FF0EB1"/>
<path d="M8.31673 63.2648C7.42589 63.2648 6.55965 62.7991 6.08716 61.9705C5.39318 60.7448 5.8263 59.1906 7.05675 58.4994L31.779 44.5952C33.0094 43.9039 34.5696 44.3353 35.2636 45.561C35.9576 46.7867 35.5245 48.3409 34.294 49.0321L9.57179 62.9363C9.17313 63.1619 8.74001 63.2648 8.31673 63.2648Z" fill="#FF0EB1"/>
</g>
<g opacity="0.062581">
<path d="M52.4897 59.9307C38.8661 59.9307 27.7822 48.8897 27.7822 35.3188C27.7822 21.748 38.8661 10.707 52.4897 10.707C66.1132 10.707 77.1971 21.748 77.1971 35.3188C77.2021 48.8897 66.1132 59.9307 52.4897 59.9307ZM52.4897 15.1636C41.332 15.1636 32.2561 24.2043 32.2561 35.3188C32.2561 46.4334 41.332 55.4741 52.4897 55.4741C63.6474 55.4741 72.7232 46.4334 72.7232 35.3188C72.7232 24.2043 63.6474 15.1636 52.4897 15.1636Z" fill="#FF0EB1"/>
<path d="M52.4895 62.7249C37.3204 62.7249 24.9766 50.4288 24.9766 35.3185C24.9766 20.2082 37.3204 7.91211 52.4895 7.91211C67.6585 7.91211 80.0023 20.2082 80.0023 35.3185C80.0023 50.4288 67.6634 62.7249 52.4895 62.7249ZM52.4895 9.18192C38.0243 9.18192 26.2562 20.9044 26.2562 35.3136C26.2562 49.7228 38.0243 61.4453 52.4895 61.4453C66.9546 61.4453 78.7227 49.7228 78.7227 35.3136C78.7227 20.9044 66.9546 9.18192 52.4895 9.18192Z" fill="#FF0EB1"/>
<path d="M70.9659 24.4144C70.1833 24.4144 69.4253 24.0075 69.0168 23.2819C68.4114 22.2082 68.7904 20.8501 69.8634 20.2422L94.5856 6.33797C95.6635 5.73494 97.0268 6.11245 97.6371 7.18125C98.2425 8.25495 97.8635 9.61301 96.7906 10.221L72.0683 24.1252C71.714 24.3213 71.3399 24.4144 70.9659 24.4144Z" fill="#FF0EB1"/>
<path d="M8.31644 62.9457C7.53388 62.9457 6.77592 62.5387 6.36741 61.8131C5.76203 60.7394 6.14101 59.3814 7.21396 58.7734L31.9362 44.8692C33.0141 44.2662 34.3774 44.6437 34.9877 45.7125C35.5931 46.7862 35.2141 48.1443 34.1412 48.7522L9.41893 62.6564C9.06456 62.8525 8.6905 62.9457 8.31644 62.9457Z" fill="#FF0EB1"/>
</g>
<g opacity="0.073611">
<path d="M52.4896 59.6117C39.0432 59.6117 28.1021 48.7128 28.1021 35.3185C28.1021 21.9242 39.0432 11.0254 52.4896 11.0254C65.936 11.0254 76.8771 21.9242 76.8771 35.3185C76.8771 48.7128 65.9409 59.6117 52.4896 59.6117ZM52.4896 14.8446C41.1547 14.8446 31.9361 24.0275 31.9361 35.3185C31.9361 46.6096 41.1547 55.7924 52.4896 55.7924C63.8245 55.7924 73.043 46.6096 73.043 35.3185C73.043 24.0275 63.8245 14.8446 52.4896 14.8446Z" fill="#FF0EB1"/>
<path d="M52.4897 62.6363C37.3699 62.6363 25.0654 50.3843 25.0654 35.3181C25.0654 20.2569 37.365 8 52.4897 8C67.6095 8 79.914 20.252 79.914 35.3181C79.914 50.3794 67.6095 62.6363 52.4897 62.6363ZM52.4897 9.09331C37.9753 9.09331 26.163 20.8599 26.163 35.3181C26.163 49.7763 37.9753 61.5429 52.4897 61.5429C67.0041 61.5429 78.8165 49.7763 78.8165 35.3181C78.8165 20.8599 67.009 9.09331 52.4897 9.09331Z" fill="#FF0EB1"/>
<path d="M70.9657 24.0954C70.2964 24.0954 69.6467 23.7473 69.2923 23.1246C68.7706 22.2078 69.0955 21.0409 70.0208 20.5213L94.743 6.61705C95.6634 6.09736 96.8347 6.42094 97.3565 7.34266C97.8782 8.25947 97.5533 9.42633 96.628 9.94602L71.9058 23.8502C71.6056 24.0169 71.2857 24.0954 70.9657 24.0954Z" fill="#FF0EB1"/>
<path d="M8.31633 62.6266C7.64696 62.6266 6.99729 62.2785 6.64292 61.6559C6.1212 60.739 6.44604 59.5722 7.37134 59.0525L32.0936 45.1483C33.0139 44.6286 34.1853 44.9522 34.707 45.8739C35.2288 46.7907 34.9039 47.9576 33.9786 48.4773L9.25639 62.3815C8.96109 62.5482 8.63625 62.6266 8.31633 62.6266Z" fill="#FF0EB1"/>
</g>
<g opacity="0.089307">
<path d="M52.4895 59.2927C39.2154 59.2927 28.417 48.5361 28.417 35.3133C28.417 22.0906 39.2154 11.334 52.4895 11.334C65.7636 11.334 76.5621 22.0906 76.5621 35.3133C76.5621 48.541 65.7636 59.2927 52.4895 59.2927ZM52.4895 14.5257C40.9824 14.5257 31.6162 23.8507 31.6162 35.3182C31.6162 46.7809 40.9774 56.1108 52.4895 56.1108C63.9967 56.1108 73.3629 46.7858 73.3629 35.3182C73.3629 23.8507 64.0016 14.5257 52.4895 14.5257Z" fill="#FF0EB1"/>
<path d="M52.49 62.5437C37.4194 62.5437 25.1592 50.331 25.1592 35.3187C25.1592 20.3065 37.4194 8.09375 52.49 8.09375C67.5605 8.09375 79.8207 20.3065 79.8207 35.3187C79.8207 50.331 67.5605 62.5437 52.49 62.5437ZM52.49 9.00076C37.9214 9.00076 26.0697 20.8066 26.0697 35.3187C26.0697 49.8309 37.9214 61.6367 52.49 61.6367C67.0585 61.6367 78.9102 49.8309 78.9102 35.3187C78.9102 20.8066 67.0585 9.00076 52.49 9.00076Z" fill="#FF0EB1"/>
<path d="M70.9659 23.7772C70.4098 23.7772 69.8684 23.4879 69.5731 22.9682C69.14 22.2034 69.4107 21.2326 70.1785 20.8012L94.9007 6.89698C95.6685 6.46554 96.643 6.73519 97.081 7.50002C97.5142 8.26485 97.2435 9.23559 96.4757 9.67194L71.7534 23.5761C71.5024 23.7134 71.2317 23.7772 70.9659 23.7772Z" fill="#FF0EB1"/>
<path d="M8.31653 62.3074C7.76036 62.3074 7.21897 62.0182 6.92366 61.4985C6.49054 60.7337 6.76124 59.7629 7.52904 59.3266L32.2513 45.4224C33.0191 44.9909 33.9936 45.2606 34.4267 46.0254C34.8598 46.7902 34.5891 47.761 33.8213 48.1973L9.0991 62.1015C8.85301 62.2437 8.58231 62.3074 8.31653 62.3074Z" fill="#FF0EB1"/>
</g>
<g opacity="0.1407">
<path d="M52.4894 58.9737C39.3925 58.9737 28.7368 48.3592 28.7368 35.313C28.7368 22.2668 39.3925 11.6523 52.4894 11.6523C65.5864 11.6523 76.2421 22.2668 76.2421 35.313C76.2421 48.3592 65.5864 58.9737 52.4894 58.9737ZM52.4894 14.2067C40.8051 14.2067 31.2962 23.6788 31.2962 35.3179C31.2962 46.9571 40.8051 56.4292 52.4894 56.4292C64.1738 56.4292 73.6827 46.9571 73.6827 35.3179C73.6827 23.6788 64.1738 14.2067 52.4894 14.2067Z" fill="#FF0EB1"/>
<path d="M52.4897 62.4492C37.4684 62.4492 25.2476 50.2757 25.2476 35.3125C25.2476 20.3493 37.4684 8.17578 52.4897 8.17578C67.5111 8.17578 79.7319 20.3493 79.7319 35.3125C79.7319 50.2806 67.5111 62.4492 52.4897 62.4492ZM52.4897 8.91119C37.872 8.91119 25.9809 20.7562 25.9809 35.3174C25.9809 49.8786 37.872 61.7236 52.4897 61.7236C67.1075 61.7236 78.9986 49.8786 78.9986 35.3174C78.9986 20.7562 67.1075 8.91119 52.4897 8.91119Z" fill="#FF0EB1"/>
<path d="M70.9658 23.4581C70.5179 23.4581 70.0848 23.2227 69.8485 22.8109C69.4991 22.198 69.7205 21.4234 70.3358 21.0753L95.058 7.17111C95.6732 6.82302 96.4509 7.04364 96.8003 7.65648C97.1498 8.26933 96.9283 9.04396 96.3131 9.39206L71.5908 23.2963C71.394 23.409 71.1774 23.4581 70.9658 23.4581Z" fill="#FF0EB1"/>
<path d="M8.31635 61.9893C7.86846 61.9893 7.43534 61.754 7.1991 61.3421C6.84965 60.7293 7.07113 59.9547 7.68636 59.6066L32.4086 45.7024C33.0238 45.3543 33.8014 45.5749 34.1509 46.1877C34.5003 46.8006 34.2789 47.5752 33.6636 47.9233L8.94142 61.8275C8.74454 61.9403 8.52798 61.9893 8.31635 61.9893Z" fill="#FF0EB1"/>
</g>
<path d="M52.4898 58.6547C39.5701 58.6547 29.0571 48.1824 29.0571 35.3127C29.0571 22.443 39.5701 11.9707 52.4898 11.9707C65.4096 11.9707 75.9226 22.443 75.9226 35.3127C75.9226 48.1824 65.4096 58.6547 52.4898 58.6547ZM52.4898 13.8877C40.6283 13.8877 30.9766 23.502 30.9766 35.3176C30.9766 47.1332 40.6283 56.7475 52.4898 56.7475C64.3514 56.7475 74.003 47.1332 74.003 35.3176C74.003 23.502 64.3514 13.8877 52.4898 13.8877Z" fill="#FF0EB1"/>
<path d="M52.49 62.3625C37.5179 62.3625 25.3413 50.2331 25.3413 35.319C25.3413 20.4048 37.5179 8.27539 52.49 8.27539C67.4621 8.27539 79.6387 20.4048 79.6387 35.319C79.6387 50.2282 67.4621 62.3625 52.49 62.3625ZM52.49 8.8196C37.823 8.8196 25.8876 20.7088 25.8876 35.319C25.8876 49.9292 37.823 61.8183 52.49 61.8183C67.157 61.8183 79.0923 49.9292 79.0923 35.319C79.0923 20.7088 67.157 8.8196 52.49 8.8196Z" fill="#FF0EB1"/>
<path d="M70.966 23.1399C70.6313 23.1399 70.3065 22.9634 70.1293 22.6546C69.8685 22.1937 70.0309 21.6103 70.4935 21.3504L95.2158 7.44622C95.6784 7.18637 96.2641 7.34817 96.525 7.80902C96.7858 8.26988 96.6234 8.85331 96.1607 9.11316L71.4336 23.0174C71.2859 23.1007 71.1235 23.1399 70.966 23.1399Z" fill="#FF0EB1"/>
<path d="M8.31661 61.6712C7.98193 61.6712 7.65709 61.4947 7.4799 61.1858C7.21905 60.725 7.38147 60.1415 7.84412 59.8817L32.5663 45.9775C33.029 45.7176 33.6147 45.8794 33.8755 46.3403C34.1364 46.8011 33.974 47.3846 33.5113 47.6444L8.78911 61.5486C8.63653 61.632 8.47411 61.6712 8.31661 61.6712Z" fill="#FF0EB1"/>
<path d="M52.4897 58.2766C39.7816 58.2766 29.4409 47.9759 29.4409 35.317C29.4409 22.6581 39.7816 12.3574 52.4897 12.3574C65.1978 12.3574 75.5385 22.6581 75.5385 35.317C75.5385 47.9759 65.1978 58.2766 52.4897 58.2766ZM52.4897 13.5047C40.4165 13.5047 30.5926 23.2906 30.5926 35.317C30.5926 47.3435 40.4165 57.1293 52.4897 57.1293C64.5629 57.1293 74.3868 47.3435 74.3868 35.317C74.3868 23.2906 64.5629 13.5047 52.4897 13.5047Z" fill="#FF87D8"/>
<path d="M52.4896 62.2542C37.5815 62.2542 25.4492 50.1739 25.4492 35.3185C25.4492 20.4681 37.5765 8.38281 52.4896 8.38281C67.3978 8.38281 79.53 20.4632 79.53 35.3185C79.53 50.169 67.3978 62.2542 52.4896 62.2542ZM52.4896 8.7113C37.7636 8.7113 25.779 20.6495 25.779 35.3185C25.779 49.9876 37.7636 61.9258 52.4896 61.9258C67.2157 61.9258 79.2003 49.9876 79.2003 35.3185C79.2003 20.6446 67.2206 8.7113 52.4896 8.7113Z" fill="#FF87D8"/>
<path d="M70.9659 22.7569C70.7641 22.7569 70.5721 22.6539 70.4638 22.4676C70.3063 22.193 70.4048 21.84 70.6804 21.6881L95.4026 7.78386C95.6782 7.62697 96.0326 7.72503 96.1852 7.99958C96.3427 8.27413 96.2442 8.62713 95.9686 8.77912L71.2464 22.6833C71.1578 22.7373 71.0594 22.7569 70.9659 22.7569Z" fill="#FF87D8"/>
<path d="M8.31645 61.2881C8.11465 61.2881 7.9227 61.1852 7.81442 60.9988C7.65693 60.7243 7.75536 60.3713 8.03098 60.2193L32.7532 46.3151C33.0288 46.1582 33.3832 46.2563 33.5358 46.5308C33.6933 46.8054 33.5948 47.1584 33.3192 47.3104L8.59699 61.2146C8.5084 61.2685 8.40996 61.2881 8.31645 61.2881Z" fill="#FF87D8"/>
<path d="M52.4896 57.8965C39.9932 57.8965 29.8247 47.7674 29.8247 35.3194C29.8247 22.8713 39.9932 12.7422 52.4896 12.7422C64.9861 12.7422 75.1545 22.8713 75.1545 35.3194C75.1545 47.7674 64.9861 57.8965 52.4896 57.8965ZM52.4896 13.1246C40.2048 13.1246 30.2086 23.0821 30.2086 35.3194C30.2086 47.5566 40.2048 57.5141 52.4896 57.5141C64.7744 57.5141 74.7706 47.5566 74.7706 35.3194C74.7706 23.0821 64.7744 13.1246 52.4896 13.1246Z" fill="white"/>
<path d="M52.4897 62.142C37.6406 62.142 25.5625 50.1106 25.5625 35.319C25.5625 20.5274 37.6406 8.49609 52.4897 8.49609C67.3388 8.49609 79.4218 20.5274 79.4218 35.319C79.4218 50.1106 67.3388 62.142 52.4897 62.142ZM52.4897 8.60395C37.6997 8.60395 25.6708 20.5863 25.6708 35.319C25.6708 50.0518 37.6997 62.0341 52.4897 62.0341C67.2797 62.0341 79.3086 50.0518 79.3086 35.319C79.3086 20.5863 67.2797 8.60395 52.4897 8.60395Z" fill="white"/>
<path d="M70.9611 22.3756C70.8922 22.3756 70.8282 22.3413 70.7938 22.2776C70.7397 22.1844 70.7741 22.0668 70.8676 22.0177L95.5898 8.11352C95.6834 8.05959 95.8015 8.09391 95.8507 8.18706C95.9048 8.28021 95.8704 8.39788 95.7769 8.44691L71.0547 22.3511C71.03 22.3707 70.9956 22.3756 70.9611 22.3756Z" fill="white"/>
<path d="M8.3166 60.9069C8.2477 60.9069 8.18372 60.8726 8.14926 60.8088C8.09512 60.7157 8.12958 60.598 8.22309 60.549L32.9453 46.6448C33.0388 46.5908 33.157 46.6252 33.2062 46.7183C33.2603 46.8115 33.2259 46.9291 33.1323 46.9782L8.41012 60.8824C8.38059 60.902 8.34614 60.9069 8.3166 60.9069Z" fill="white"/>
<path d="M49.9649 33.0781V39.942H48.2127V36.2453L46.5393 39.0006H46.3621L44.6985 36.2551V39.942H42.9365V33.0781H44.6985L46.4507 36.01L48.2127 33.0781H49.9649Z" fill="white"/>
<path d="M54.8591 33.0781H56.6112V39.942H55.2528L52.8214 36.4904V39.942H51.0594V33.0781H52.4277L54.8591 36.5297V33.0781Z" fill="white"/>
<path d="M60.3794 33.0781C61.075 33.0781 61.6591 33.3037 62.1316 33.7547C62.6041 34.2058 62.8403 34.781 62.8403 35.4805C62.8403 36.1799 62.6041 36.7552 62.1316 37.2062C61.6591 37.6573 61.075 37.8828 60.3794 37.8828H59.4639V39.942H57.7019V33.0781H60.3794ZM60.3794 36.2159C60.5763 36.2159 60.7403 36.1472 60.8716 36.01C61.0094 35.8727 61.0783 35.6962 61.0783 35.4805C61.0783 35.2648 61.0094 35.0915 60.8716 34.9608C60.7403 34.8235 60.5763 34.7549 60.3794 34.7549H59.4639V36.2159H60.3794Z" fill="white"/>
<path d="M43.3763 41.9141C43.56 41.9141 43.7134 41.9837 43.8365 42.1228C43.9615 42.2601 44.024 42.4321 44.024 42.6389C44.024 42.8458 43.9615 43.0187 43.8365 43.1578C43.7134 43.2951 43.56 43.3638 43.3763 43.3638C43.209 43.3638 43.0786 43.3089 42.9849 43.199V43.8744H42.5273V41.9526H42.9849V42.0789C43.0786 41.969 43.209 41.9141 43.3763 41.9141ZM43.0648 42.8558C43.1181 42.9108 43.1879 42.9382 43.2743 42.9382C43.3606 42.9382 43.4305 42.9108 43.4837 42.8558C43.537 42.8009 43.5637 42.7286 43.5637 42.6389C43.5637 42.5493 43.537 42.477 43.4837 42.422C43.4305 42.3671 43.3606 42.3397 43.2743 42.3397C43.1879 42.3397 43.1181 42.3671 43.0648 42.422C43.0115 42.477 42.9849 42.5493 42.9849 42.6389C42.9849 42.7286 43.0115 42.8009 43.0648 42.8558Z" fill="#FF52BD"/>
<path d="M44.631 42.8064C44.6769 42.9181 44.7798 42.9739 44.9397 42.9739C45.0389 42.9739 45.1225 42.9419 45.1905 42.8778L45.5212 43.1084C45.3853 43.2787 45.1877 43.3638 44.9286 43.3638C44.6953 43.3638 44.5079 43.296 44.3664 43.1606C44.2267 43.0233 44.1569 42.8503 44.1569 42.6417C44.1569 42.4349 44.2258 42.2619 44.3636 42.1228C44.5014 41.9837 44.6769 41.9141 44.8901 41.9141C45.0959 41.9141 45.2658 41.9828 45.4 42.12C45.5341 42.2573 45.6012 42.4294 45.6012 42.6362C45.6012 42.6966 45.5947 42.7533 45.5819 42.8064H44.631ZM44.6255 42.4907H45.1547C45.1179 42.3626 45.0315 42.2985 44.8956 42.2985C44.7541 42.2985 44.6641 42.3626 44.6255 42.4907Z" fill="#FF52BD"/>
<path d="M46.0181 41.8043V41.4199H46.9084V41.8043H46.0181ZM46.7789 41.9526H47.1317V43.3253H46.6852V42.6829L46.1504 43.3253H45.7977V41.9526H46.2442V42.595L46.7789 41.9526Z" fill="#FF52BD"/>
<path d="M48.5375 41.9526V42.3891H48.1434V43.3253H47.6859V42.3891H47.2862V41.9526H48.5375Z" fill="#FF52BD"/>
<path d="M49.6723 41.9526H50.0251V43.3253H49.5786V42.6829L49.0439 43.3253H48.6911V41.9526H49.1376V42.595L49.6723 41.9526Z" fill="#FF52BD"/>
<path d="M51.1526 41.9526H51.6102V43.3253H51.1526V42.8531H50.7475V43.3253H50.29V41.9526H50.7475V42.4248H51.1526V41.9526Z" fill="#FF52BD"/>
<path d="M52.8648 41.9526V42.3891H52.3328V43.3253H51.8753V41.9526H52.8648Z" fill="#FF52BD"/>
<path d="M55.0107 43.3253H54.498L54.1066 42.7405V43.3253H53.6491V41.9526H54.1066V42.5264L54.4622 41.9526H54.9914L54.5283 42.6389L55.0107 43.3253Z" fill="#FF52BD"/>
<path d="M56.027 41.9526H56.4846V43.3253H56.027V43.199C55.9333 43.3089 55.8029 43.3638 55.6357 43.3638C55.4519 43.3638 55.2976 43.2951 55.1726 43.1578C55.0495 43.0187 54.988 42.8458 54.988 42.6389C54.988 42.4321 55.0495 42.2601 55.1726 42.1228C55.2976 41.9837 55.4519 41.9141 55.6357 41.9141C55.8029 41.9141 55.9333 41.969 56.027 42.0789V41.9526ZM55.5282 42.8558C55.5815 42.9108 55.6513 42.9382 55.7376 42.9382C55.824 42.9382 55.8938 42.9108 55.9471 42.8558C56.0004 42.8009 56.027 42.7286 56.027 42.6389C56.027 42.5493 56.0004 42.477 55.9471 42.422C55.8938 42.3671 55.824 42.3397 55.7376 42.3397C55.6513 42.3397 55.5815 42.3671 55.5282 42.422C55.4749 42.477 55.4482 42.5493 55.4482 42.6389C55.4482 42.7286 55.4749 42.8009 55.5282 42.8558Z" fill="#FF52BD"/>
<path d="M57.6208 42.6252C57.7568 42.6966 57.8247 42.8055 57.8247 42.9519C57.8247 43.0727 57.7724 43.1725 57.6676 43.2512C57.5629 43.3281 57.4214 43.3665 57.2432 43.3665C56.9547 43.3665 56.7553 43.2567 56.6451 43.037L57.0034 42.8284C57.0457 42.9345 57.1228 42.9876 57.2349 42.9876C57.2735 42.9876 57.3057 42.9794 57.3314 42.9629C57.3571 42.9464 57.37 42.9236 57.37 42.8943C57.37 42.8375 57.3323 42.8092 57.257 42.8092H57.0916V42.4522H57.2349C57.3029 42.4522 57.3369 42.4248 57.3369 42.3699C57.3369 42.3113 57.2965 42.282 57.2156 42.282C57.1219 42.282 57.0558 42.3314 57.0172 42.4303L56.6589 42.2353C56.7801 42.0212 56.9731 41.9141 57.2377 41.9141C57.3975 41.9141 57.5271 41.9544 57.6263 42.0349C57.7255 42.1136 57.7751 42.2106 57.7751 42.326C57.7751 42.4596 57.7237 42.5593 57.6208 42.6252Z" fill="#FF52BD"/>
<path d="M58.988 41.9526H59.3408V43.3253H58.8943V42.6829L58.3596 43.3253H58.0068V41.9526H58.4533V42.595L58.988 41.9526Z" fill="#FF52BD"/>
<path d="M60.4683 41.9526H60.9258V43.3253H60.4683V42.8531H60.0632V43.3253H59.6056V41.9526H60.0632V42.4248H60.4683V41.9526Z" fill="#FF52BD"/>
<path d="M61.858 43.3638C61.6541 43.3638 61.4804 43.2942 61.3371 43.1551C61.1938 43.0142 61.1221 42.8421 61.1221 42.6389C61.1221 42.4358 61.1938 42.2646 61.3371 42.1255C61.4804 41.9846 61.6541 41.9141 61.858 41.9141C62.0638 41.9141 62.2375 41.9846 62.379 42.1255C62.5223 42.2646 62.594 42.4358 62.594 42.6389C62.594 42.8421 62.5223 43.0142 62.379 43.1551C62.2375 43.2942 62.0638 43.3638 61.858 43.3638ZM61.858 42.9245C61.9389 42.9245 62.005 42.8979 62.0565 42.8449C62.1098 42.7918 62.1364 42.7231 62.1364 42.6389C62.1364 42.5547 62.1098 42.4861 62.0565 42.433C62.005 42.3799 61.9389 42.3534 61.858 42.3534C61.779 42.3534 61.7129 42.3799 61.6596 42.433C61.6081 42.4861 61.5824 42.5547 61.5824 42.6389C61.5824 42.7231 61.6081 42.7918 61.6596 42.8449C61.7129 42.8979 61.779 42.9245 61.858 42.9245Z" fill="#FF52BD"/>
</svg>
